<svg width="42" height="38" viewBox="0 0 42 38" fill="none" xmlns="http://www.w3.org/2000/svg">
<path d="M40.2656 8.29372C39.6373 6.8389 38.7313 5.52055 37.5984 4.41247C36.4647 3.30109 35.1279 2.4179 33.6609 1.81091C32.1397 1.179 30.5082 0.855556 28.8609 0.859347C26.55 0.859347 24.2953 1.49216 22.3359 2.68747C21.8672 2.97341 21.4219 3.28747 21 3.62966C20.5781 3.28747 20.1328 2.97341 19.6641 2.68747C17.7047 1.49216 15.45 0.859347 13.1391 0.859347C11.475 0.859347 9.8625 1.1781 8.33906 1.81091C6.86718 2.42028 5.54062 3.29685 4.40156 4.41247C3.26717 5.5193 2.36099 6.83796 1.73437 8.29372C1.08281 9.80779 0.75 11.4156 0.75 13.0703C0.75 14.6312 1.06875 16.2578 1.70156 17.9125C2.23125 19.2953 2.99062 20.7297 3.96094 22.1781C5.49844 24.4703 7.6125 26.8609 10.2375 29.2843C14.5875 33.3015 18.8953 36.0765 19.0781 36.189L20.1891 36.9015C20.6812 37.2156 21.3141 37.2156 21.8062 36.9015L22.9172 36.189C23.1 36.0718 27.4031 33.3015 31.7578 29.2843C34.3828 26.8609 36.4969 24.4703 38.0344 22.1781C39.0047 20.7297 39.7687 19.2953 40.2937 17.9125C40.9265 16.2578 41.2453 14.6312 41.2453 13.0703C41.25 11.4156 40.9172 9.80779 40.2656 8.29372ZM21 33.1937C21 33.1937 4.3125 22.5015 4.3125 13.0703C4.3125 8.29372 8.26406 4.42185 13.1391 4.42185C16.5656 4.42185 19.5375 6.33435 21 9.1281C22.4625 6.33435 25.4344 4.42185 28.8609 4.42185C33.7359 4.42185 37.6875 8.29372 37.6875 13.0703C37.6875 22.5015 21 33.1937 21 33.1937Z" fill="white"/>
</svg>
