<svg width="90" height="32" viewBox="0 0 90 32" fill="none" xmlns="http://www.w3.org/2000/svg">
<path d="M90 0.25L24.1575 28.285C18.6975 30.595 14.1112 31.7537 10.4025 31.7537C6.20247 31.7537 3.15372 30.2838 1.26372 27.34C0.0749733 25.45 -0.273777 23.0537 0.213723 20.1475C0.701223 17.2412 1.99872 14.1475 4.09872 10.855C5.84997 8.1925 8.71872 4.69375 12.7125 0.355C11.3578 2.4875 10.3645 4.82897 9.77247 7.285C8.72247 11.7662 9.66747 15.055 12.6075 17.155C14.0062 18.1337 15.93 18.625 18.3825 18.625C20.34 18.625 22.545 18.31 24.9975 17.68L90 0.25Z" fill="white"/>
</svg>
